<svg id="afcf7ba7-9a9d-4a96-99b1-c6a86c14369d" data-name="Layer 1" xmlns="http://www.w3.org/2000/svg" xmlns:xlink="http://www.w3.org/1999/xlink" width="1124.67665" height="770.76802" viewBox="0 0 1124.67665 770.76802"><defs><linearGradient id="f93e83ed-aae3-4939-a31b-02dcc6721011" x1="969.1404" y1="556.31063" x2="969.1404" y2="137.11639" gradientUnits="userSpaceOnUse"><stop offset="0" stop-color="gray" stop-opacity="0.25"/><stop offset="0.53514" stop-color="gray" stop-opacity="0.12"/><stop offset="1" stop-color="gray" stop-opacity="0.1"/></linearGradient><linearGradient id="e0229f75-5a20-4c1d-bfcf-9b57e2e8c95e" x1="355.66372" y1="691.67079" x2="355.66372" y2="298.97832" xlink:href="#f93e83ed-aae3-4939-a31b-02dcc6721011"/></defs><title>Firmware</title><path class="bg floating" d="M1098.47347,502.76777c-37.663,47.88386-23.031,117.83664.9016,173.85981,8.01293,18.75725,17.0759,38.60234,13.695,58.71728-4.13432,24.59753-26.08748,42.58378-49.13665,52.1162-42.01754,17.37713-92.2982,13.2358-130.90628-10.782-33.36454-20.75585-57.25858-54.5096-91.19252-74.32082-56.78845-33.15408-129.07155-20.634-190.73642,2.2038-43.62646,16.15721-91.32258,37.16931-134.67243,20.284-30.50319-11.88137-51.58771-40.79984-63.076-71.45325-5.5467-14.79989-9.57255-30.81931-20.1645-42.55018-6.297-6.9741-14.51488-11.92428-22.93319-16.09827C333.38059,556.62972,236.292,577.04065,161.627,534.76664c-50.4261-28.55036-82.70874-82.406-97.00245-138.563S51.99574,281.16217,55.62485,223.3284c2.579-41.1,7.20632-84.97836,33.46752-116.69913,27.78074-33.55622,75.45828-46.03383,118.55249-39.65584S289.80028,96.0835,324.16473,122.858c42.94814,33.46235,82.77835,75.131,135.50913,88.6859,35.91013,9.231,73.68546,4.18165,110.72181,2.43307,61.91628-2.92324,123.858,3.57752,185.43319,10.69583,58.94744,6.81455,118.32064,14.31464,174.47711,33.49047,39.74036,13.57022,71.60046,38.20328,109.12549,55.4123,24.46028,11.21751,51.13328,14.31495,74.29231,28.60252,28.52845,17.60014,54.68268,48.213,47.37314,84.0348C1154.14731,460.27072,1118.46334,477.35311,1098.47347,502.76777Z" transform="translate(-37.66167 -65.36599)" fill="#6c63ff" opacity="0.1"/><path d="M772.70649,212.225s-60.54073-17.93019-64.54073,33.06981,16,135,0,162-73.09311,66.00953-43.04656,69.50476,45.04656,8.49524,36.04656,26.49524-56,35-46,48,15,29,5,45-45,26-39,37,28,17,17,29-42.88811,39.29611-30.444,39.14806" transform="translate(-37.66167 -65.36599)" fill="none" stroke="#535461" stroke-miterlimit="10" stroke-width="3"/><rect x="682.84211" y="112.88104" width="153.61197" height="71.24033" rx="12.9697" fill="#6c63ff"/><rect x="695.08655" y="173.18753" width="129.1231" height="1.33576" opacity="0.1"/><rect x="695.08655" y="124.01234" width="129.1231" height="48.97773" opacity="0.3"/><circle class="eyes" cx="725.14106" cy="149.52335" r="17.81008" opacity="0.1"/><circle class="eyes" cx="794.15514" cy="149.52335" r="17.81008" opacity="0.1"/><rect x="746.28967" y="184.11937" width="26.71374" height="15.58769" fill="#6c63ff"/><rect x="703.99159" y="195.25268" width="111.31302" height="89.05042" fill="#6c63ff"/><rect x="701.76533" y="302.11318" width="115.76554" height="11.1313" fill="#6c63ff"/><polygon points="720.689 339.96 720.689 353.317 720.689 373.353 720.689 384.485 720.689 391.164 740.725 391.164 740.725 384.485 740.725 373.353 740.725 353.317 740.725 339.96 740.725 324.376 720.689 324.376 720.689 339.96" fill="#6c63ff"/><polygon points="780.798 324.376 780.798 339.96 780.798 353.317 780.798 373.353 780.798 384.485 780.798 391.164 800.834 391.164 800.834 384.485 800.834 373.353 800.834 353.317 800.834 339.96 800.834 324.376 780.798 324.376" fill="#6c63ff"/><path d="M726.49153,280.65563v20.59108a30.11851,30.11851,0,0,0-14.80062,7.13458A35.01353,35.01353,0,0,0,702.88,321.30117a65.63157,65.63157,0,0,0-4.339,19.72228,112.76591,112.76591,0,0,0,1.2317,26.45817h-22.2623a151.97079,151.97079,0,0,1,.5826-31.93176,84.74431,84.74431,0,0,1,7.14481-25.3083c6.44972-13.52806,15.62347-20.867,23.68306-24.8534A43.73973,43.73973,0,0,1,726.49153,280.65563Z" transform="translate(-37.66167 -65.36599)" fill="#6c63ff"/><rect x="720.68854" y="324.37578" width="20.03634" height="15.58382" opacity="0.3"/><rect x="720.68854" y="353.31717" width="20.03634" height="20.03634" opacity="0.3"/><rect x="720.68854" y="384.48481" width="20.03634" height="6.67878" opacity="0.3"/><rect x="780.79757" y="324.37578" width="20.03634" height="15.58382" opacity="0.3"/><rect x="780.79757" y="353.31717" width="20.03634" height="20.03634" opacity="0.3"/><rect x="780.79757" y="384.48481" width="20.03634" height="6.67878" opacity="0.3"/><path d="M726.49153,280.65563v20.59108a30.11851,30.11851,0,0,0-14.80062,7.13458l-2.77-22.99313A43.73973,43.73973,0,0,1,726.49153,280.65563Z" transform="translate(-37.66167 -65.36599)" opacity="0.3"/><path d="M702.88,321.30117a65.63157,65.63157,0,0,0-4.339,19.72228l-20.448-5.47359a84.74431,84.74431,0,0,1,7.14481-25.3083Z" transform="translate(-37.66167 -65.36599)" opacity="0.3"/><path d="M868.128,280.65563v20.59108a30.11855,30.11855,0,0,1,14.80062,7.13458,35.01353,35.01353,0,0,1,8.81091,12.91988,65.63157,65.63157,0,0,1,4.339,19.72228,112.76591,112.76591,0,0,1-1.2317,26.45817h22.26229a151.97018,151.97018,0,0,0-.58259-31.93176,84.74431,84.74431,0,0,0-7.14481-25.3083c-6.44973-13.52806-15.62347-20.867-23.68306-24.8534A43.73977,43.73977,0,0,0,868.128,280.65563Z" transform="translate(-37.66167 -65.36599)" fill="#6c63ff"/><path d="M868.128,280.65563v20.59108a30.11855,30.11855,0,0,1,14.80062,7.13458l2.77-22.99313A43.73977,43.73977,0,0,0,868.128,280.65563Z" transform="translate(-37.66167 -65.36599)" opacity="0.3"/><path d="M891.73955,321.30117a65.63157,65.63157,0,0,1,4.339,19.72228l20.448-5.47359a84.74431,84.74431,0,0,0-7.14481-25.3083Z" transform="translate(-37.66167 -65.36599)" opacity="0.3"/><rect x="746.28967" y="184.11937" width="26.71374" height="1.84496" opacity="0.1"/><path d="M854.94437,276.48527V313.768a7.76813,7.76813,0,0,1-2.06983-5.2845V281.76465A7.75545,7.75545,0,0,1,854.94437,276.48527Z" transform="translate(-37.66167 -65.36599)" opacity="0.1"/><path d="M742.04856,278.94352v27.90966a7.76037,7.76037,0,0,1-2.07495,4.7223V274.22122A7.76042,7.76042,0,0,1,742.04856,278.94352Z" transform="translate(-37.66167 -65.36599)" opacity="0.1"/><rect x="709.55893" y="284.30479" width="100.18033" height="1.31857" opacity="0.1"/><rect x="707.33067" y="313.2468" width="48.97603" height="1.02214" opacity="0.1"/><rect x="760.76323" y="313.2468" width="48.97603" height="1.02214" opacity="0.1"/><rect x="712.79403" y="46.95276" width="7.66608" height="65.92828" fill="#6c63ff"/><rect x="800.69841" y="46.95276" width="7.66608" height="65.92828" fill="#6c63ff"/><circle cx="716.37153" cy="47.46383" r="8.68822" opacity="0.1"/><circle class="antenna_circle" cx="716.37153" cy="46.95276" r="8.68822" fill="#6c63ff"/><circle cx="804.78698" cy="47.46383" r="8.68822" opacity="0.1"/><circle class="antenna_circle" cx="804.78698" cy="46.95276" r="8.68822" fill="#6c63ff"/><path d="M543.15947,548.06642A298.40742,298.40742,0,0,1,538.6829,507.017v-.00007a54.98956,54.98956,0,0,0-38.69748-50.21842c-3.949-1.21493-8.3042-2.35052-13.10626-3.37044-42.1284-8.94764-54.92591-1.13536-56.37994-.1083a54.0178,54.0178,0,0,1-3.18935-6.96572c-.07154-.24351-.13807-.49115-.20648-.7373a53.93276,53.93276,0,0,0,14.40969-32.49392c7.02685-7.12555,11.13238-15.722,11.13238-24.97765,0-7.96014-3.03952-15.43152-8.3594-21.90028V353.6836a54.70527,54.70527,0,0,0-54.70526-54.70528h-4.43643a54.70528,54.70528,0,0,0-54.70529,54.70528v13.5595a33.95949,33.95949,0,0,0-7.56325,20.90207c0,9.06125,3.9379,17.48925,10.69652,24.52533a53.94221,53.94221,0,0,0,15.0138,33.54527c.29593,2.05389.59968,4.26551.89923,6.59743L274.1127,468.75362s-29.05884,1.1942-47.768,39.80664c-15.83867,32.68828-47.36691,116.72511-56.669,141.74362l-.00005,0-.00007.00026c-1.68577,4.534-2.64281,7.13292-2.64281,7.13292s.30847-.31192.90053-.84494c-.58536,1.5814-.90053,2.4372-.90053,2.4372s.45755-.46245,1.32685-1.223c-1.32015,10.47017-1.50858,28.44058,12.2074,30.67994,11.49733,1.87712,41.112,2.64774,63.49158,2.96412v.02139h1.55214c14.83.199,26.11347.199,26.11347.199v-.199H512.35543V689.0057a16.58627,16.58627,0,0,0-1.326-6.518q.1734-.19987.33548-.40224a13.20763,13.20763,0,0,1,2.49679,5.78962,5.7963,5.7963,0,0,1-.113.61115s.04955-.12777.14178-.36836a6.19557,6.19557,0,0,1-.14178,1.96061s30.8728-79.5478,30.54283-127.04521A80.4727,80.4727,0,0,0,543.15947,548.06642ZM350.71985,463.5542a55.19235,55.19235,0,0,1-.76389-6.86021l.002-.06344C350.22377,458.86359,350.48083,461.18026,350.71985,463.5542Zm-93.525,170.86235V653.3751l-11.88441,2.53828Z" transform="translate(-37.66167 -65.36599)" fill="url(#e0229f75-5a20-4c1d-bfcf-9b57e2e8c95e)"/><path d="M348.46564,241.26343h.00011A54.70528,54.70528,0,0,1,403.171,295.9687v23.3359a0,0,0,0,1,0,0H293.76036a0,0,0,0,1,0,0V295.9687A54.70528,54.70528,0,0,1,348.46564,241.26343Z" fill="#e14b5a"/><ellipse cx="348.84825" cy="326.95569" rx="62.35643" ry="42.84613" fill="#e14b5a"/><path d="M346.533,433.82887s13.00686,68.09475,0,86.45738,39.7857,25.63117,39.7857,25.63117L441.024,526.02457l7.65109-48.967s-33.28226-18.74518-26.39627-56.6181Z" transform="translate(-37.66167 -65.36599)" fill="#f7c4a7"/><path d="M507.97106,663.36173s3.443,14.91964-15.30219,17.59752A106.0086,106.0086,0,0,1,459.313,680.562l-4.13453-37.47565h43.61124Z" transform="translate(-37.66167 -65.36599)" fill="#f7c4a7"/><path d="M176.92322,644.26477s-8.27823,33.634,10.467,36.69448,87.605,3.06044,87.605,3.06044V644.234l-31.1723,6.65782-29.27135-28.08088Z" transform="translate(-37.66167 -65.36599)" fill="#f7c4a7"/><path d="M350.54978,455.82577l-73.25924,15.49347s-27.9265,1.14767-45.90657,38.25548S174.38331,652.6502,174.38331,652.6502s33.28226-33.66482,72.30285,2.29533l26.01372-47.05424-5.73832,74.59818H468.56792v-35.195s42.081,22.57073,39.02059,35.195c0,0,36.00943-92.781,28.26476-134.948a286.77727,286.77727,0,0,1-4.30214-39.44983v-.00006A52.8467,52.8467,0,0,0,494.3616,459.83c-3.79512-1.16761-7.9806-2.25895-12.59554-3.23912-43.22869-9.18131-54.32277,0-54.32277,0s-8.3737,27.24644-8.22493,39.59442c.19128,15.876-22.57073,26.39628-22.57073,26.39628s-33.66482-8.03365-35.195-14.53708S347.87189,463.47687,350.54978,455.82577Z" transform="translate(-37.66167 -65.36599)" opacity="0.1"/><path d="M350.54978,454.29555,277.29054,469.789S249.364,470.93669,231.384,508.0445,174.38331,651.12,174.38331,651.12s33.28226-33.66482,72.30285,2.29533l26.01372-47.05424-5.73832,74.59818H468.56792v-35.195s42.081,22.57074,39.02059,35.195c0,0,36.00943-92.781,28.26476-134.948a286.77727,286.77727,0,0,1-4.30214-39.44983v-.00006a52.8467,52.8467,0,0,0-37.18953-48.26153c-3.79512-1.16761-7.9806-2.25895-12.59554-3.23912-43.22869-9.18131-54.32277,0-54.32277,0s-8.3737,27.24644-8.22493,39.59442c.19128,15.876-22.57073,26.39628-22.57073,26.39628s-33.66482-8.03365-35.195-14.53708S347.87189,461.94665,350.54978,454.29555Z" transform="translate(-37.66167 -65.36599)" fill="#575988"/><path d="M425.42271,451.04459a51.78109,51.78109,0,0,1-1.99625-27.16214l-75.74584,13.38942s1.09333,5.7244,2.329,14.30055a52.019,52.019,0,0,0,75.41307-.52783Z" transform="translate(-37.66167 -65.36599)" opacity="0.1"/><path d="M438.3461,412.02325a52.02746,52.02746,0,0,1-104.03961,1.26243c-.01146-.4208-.01529-.84163-.01529-1.26243a52.03941,52.03941,0,0,1,29.166-46.752q2.34124-1.14192,4.80872-2.05815a52.39855,52.39855,0,0,1,26.798-2.48661.02867.02867,0,0,0,.01913.00383,51.98725,51.98725,0,0,1,43.14836,47.84613Q438.34611,410.28644,438.3461,412.02325Z" transform="translate(-37.66167 -65.36599)" fill="#f7c4a7"/><g opacity="0.1"><path d="M368.19321,364.43382a.767.767,0,0,1,.07268-.0459q-2.4675.91239-4.80871,2.05814a52.03939,52.03939,0,0,0-29.166,46.752c0,.42081.00383.84162.01527,1.26243a11.55728,11.55728,0,0,0,4.66719-1.12088c12.68553-5.91816,20.29454-24.03208,23.28228-36.664C363.32711,372.15379,364.35237,367.05818,368.19321,364.43382Z" transform="translate(-37.66167 -65.36599)"/><path d="M408.01713,365.89517a51.59667,51.59667,0,0,0-12.93417-3.99,16.6899,16.6899,0,0,1,9.28845,5.834,23.7861,23.7861,0,0,1,2.84343,5.06875,52.16706,52.16706,0,0,0-43.75766.90674c3.267,7.1576,13.39325,11.06348,20.153,13.67634q11.10368,4.28655,22.46743,7.83854-3.34545-2.71994-6.6909-5.43227,7.55166,1.1993,15.10711,2.40243a26.16935,26.16935,0,0,0-1.05456-8.9055c2.87577,2.33234,6.73171,3.114,9.87244,5.09525,5.88753,3.71079,8.33586,10.87224,11.5455,17.04664a11.00993,11.00993,0,0,0,3.37413,4.31525A52.049,52.049,0,0,0,408.01713,365.89517Z" transform="translate(-37.66167 -65.36599)"/></g><path d="M368.19321,363.259a.76683.76683,0,0,1,.07268-.04589q-2.4675.91237-4.80871,2.05813a52.0394,52.0394,0,0,0-29.166,46.752c0,.42081.00383.84163.01527,1.26244a11.5573,11.5573,0,0,0,4.66719-1.12089c12.68553-5.91815,20.29454-24.03208,23.28228-36.664C363.32711,370.97894,364.35237,365.88334,368.19321,363.259Z" transform="translate(-37.66167 -65.36599)" fill="#632652"/><path d="M408.01713,364.72032a51.59665,51.59665,0,0,0-12.93417-3.99,16.68985,16.68985,0,0,1,9.28845,5.834,23.786,23.786,0,0,1,2.84343,5.06874,52.16706,52.16706,0,0,0-43.75766.90674c3.267,7.15761,13.39325,11.06348,20.153,13.67634q11.10368,4.28655,22.46743,7.83854-3.34545-2.71993-6.6909-5.43227,7.55166,1.1993,15.10711,2.40243a26.16941,26.16941,0,0,0-1.05456-8.9055c2.87577,2.33234,6.73171,3.114,9.87244,5.09525,5.88753,3.7108,8.33586,10.87224,11.5455,17.04664a11.00978,11.00978,0,0,0,3.37413,4.31525A52.049,52.049,0,0,0,408.01713,364.72032Z" transform="translate(-37.66167 -65.36599)" fill="#632652"/><path d="M328.3616,403.443s53.55767-66.56453,115.53154,0l-5.35577-14.91963s-29.07416-42.46358-49.73212-33.28227-40.93336,15.68475-40.93336,15.68475Z" transform="translate(-37.66167 -65.36599)" opacity="0.1"/><path d="M328.3616,402.26811s53.55767-66.56453,115.53154,0l-5.35577-14.91964s-29.07416-42.46358-49.73212-33.28226S347.87189,369.751,347.87189,369.751Z" transform="translate(-37.66167 -65.36599)" fill="#e14b5a"/><path d="M284.3678,545.72614s-11.47664,30.60438,4.59066,58.14833-14.15453,39.02058-14.15453,39.02058" transform="translate(-37.66167 -65.36599)" opacity="0.1"/><path d="M470.28942,518.1822s19.89285,25.24861,6.886,47.81935-12.24175,76.8935-12.24175,76.8935" transform="translate(-37.66167 -65.36599)" opacity="0.1"/><path d="M229.10859,600.0998H450.22528a18.36261,18.36261,0,0,1,18.36261,18.36261v0a0,0,0,0,1,0,0H210.746a0,0,0,0,1,0,0v0a18.36261,18.36261,0,0,1,18.36261-18.36261Z" fill="#535461"/><path d="M262.37029,473.85672h154.5933a39,39,0,0,1,39,39V604.3079a0,0,0,0,1,0,0H223.37029a0,0,0,0,1,0,0V512.85672A39,39,0,0,1,262.37029,473.85672Z" fill="#535461"/><circle class="laptop_circle" cx="339.47566" cy="544.82063" r="13.77197" fill="#fff"/><path d="M331.422,372.23282s52.6393-52.61064,109.41066-.95941" transform="translate(-37.66167 -65.36599)" fill="none" stroke="#000" stroke-miterlimit="10" opacity="0.1"/><rect x="411.18625" y="303.5157" width="5.28681" height="29.95859" fill="#6a5c99"/><path d="M404.13717,322.90067h0a18.2101,18.2101,0,0,1,18.2101,18.2101v1.17488a18.2101,18.2101,0,0,1-18.2101,18.2101h0a0,0,0,0,1,0,0V322.90067a0,0,0,0,1,0,0Z" fill="#ffd037"/><rect x="400.61263" y="321.1384" width="8.22393" height="41.11963" rx="4.11196" fill="#6a5c99"/><rect x="317.58062" y="369.46911" width="5.28681" height="29.95859" transform="translate(602.78638 703.53083) rotate(-180)" fill="#6a5c99"/><path d="M311.70639,388.85408h0a18.2101,18.2101,0,0,1,18.2101,18.2101v1.17488a18.2101,18.2101,0,0,1-18.2101,18.2101h0a0,0,0,0,1,0,0V388.85408A0,0,0,0,1,311.70639,388.85408Z" transform="translate(603.96123 749.93727) rotate(180)" fill="#ffd037"/><rect x="325.21712" y="387.09181" width="8.22393" height="41.11963" rx="4.11196" transform="translate(620.9965 749.93727) rotate(-180)" fill="#6a5c99"/><path d="M448.2215,336.86c-7.1584-14.88425-22.74882-32.87968-56.35657-34.316l.00294-.041-.40346.01922-.02621-.00144-.00011.00269-11.90611.567.00125.05834c-33.38635,1.53678-48.90377,19.46191-56.03937,34.29875a77.15669,77.15669,0,0,0-7.38065,32.12242l4.11082-.10068,4.11081-.09436a69.96283,69.96283,0,0,1,6.69456-28.61968c9.06433-18.61455,25.73935-28.51613,49.56327-29.42939l-.00029-.00731,10.53042-.58287-.00011.00276c23.82392.91326,40.49893,10.81484,49.56327,29.42939a69.963,69.963,0,0,1,6.69456,28.61967l4.11081.09437,4.11082.10068A77.15663,77.15663,0,0,0,448.2215,336.86Z" transform="translate(-37.66167 -65.36599)" fill="#ffd037"/><rect x="37.61496" y="618.7043" width="560.7778" height="150.56227" fill="#d6d6e3"/><rect x="37.61496" y="628.8383" width="560.7778" height="19.54414" opacity="0.1"/><rect y="616.53273" width="636.00409" height="19.54414" fill="#d6d6e3"/><path d="M473.16576,633.2948s24,44,84,32,31,111,31,111-9.81716,58.67552-2.90858,58.33776" transform="translate(-37.66167 -65.36599)" fill="none" stroke="#535461" stroke-miterlimit="10" stroke-width="3"/></svg>